<svg version="1.1" id="Layer_1" xmlns="http://www.w3.org/2000/svg" xmlns:xlink="http://www.w3.org/1999/xlink" x="0px" y="0px"
	 width="100%" viewBox="0 0 50 54" enable-background="new 0 0 50 54" xml:space="preserve">
<path fill="#F8F3FF" opacity="1.000000" stroke="none" 
	d="
M27.000000,1.000000 
	C34.965176,1.000000 42.930351,1.000000 50.947762,1.000000 
	C50.947762,18.886700 50.947762,36.773575 50.947762,55.000000 
	C43.649307,55.000000 36.293392,55.000000 28.446190,54.653191 
	C29.359034,52.957451 30.763163,51.608528 32.497192,50.135948 
	C37.287033,47.082123 41.746964,44.151951 46.175777,41.182465 
	C46.144657,41.143154 46.218567,41.233002 46.583549,41.156605 
	C47.292515,39.718536 47.636494,38.356869 48.057312,36.532326 
	C48.070271,29.717745 48.006386,23.366041 48.041302,16.659071 
	C47.097340,15.189219 46.054581,14.074631 44.878670,12.857906 
	C44.745518,12.755770 44.410110,12.767844 44.314877,12.442955 
	C43.476250,11.758531 42.732861,11.398996 41.776039,10.897854 
	C41.226799,10.723052 40.890987,10.689859 40.446190,10.331889 
	C39.574059,9.638891 38.810913,9.270670 37.878132,8.630883 
	C36.349876,7.762966 34.991253,7.166616 33.523056,6.251081 
	C32.651646,5.563372 31.889814,5.194846 31.144686,4.734488 
	C31.161390,4.642657 31.071560,4.479016 31.014137,4.167250 
	C29.637810,2.903655 28.318905,1.951828 27.000000,1.000000 
z"/>
<path fill="#FCFAFF" opacity="1.000000" stroke="none" 
	d="
M23.000000,55.000000 
	C15.699576,55.000000 8.399152,55.000000 1.049364,55.000000 
	C1.049364,37.113792 1.049364,19.227430 1.049364,1.000000 
	C8.017130,1.000000 15.039783,1.000000 22.349934,1.295457 
	C17.403297,5.019234 12.169166,8.447554 6.730497,12.089237 
	C5.894646,12.984298 5.263331,13.665996 4.233279,14.533836 
	C3.444344,15.584593 2.715407,16.449841 2.717025,17.313721 
	C2.731197,24.876596 2.875831,32.439228 2.756859,40.180931 
	C3.115578,40.810219 3.699210,41.260513 4.496181,41.752754 
	C4.709518,41.794701 5.127481,41.674709 5.065289,41.747940 
	C5.003097,41.821167 4.990002,42.012867 5.026937,42.353386 
	C5.791214,43.058613 6.518555,43.423317 7.443716,43.821259 
	C7.641536,43.854492 8.026743,43.966579 8.093342,44.311325 
	C9.145278,45.063934 10.130614,45.471802 11.315105,45.939022 
	C11.514260,45.998375 11.909518,46.126884 11.973516,46.465370 
	C13.795890,47.744328 15.554266,48.684799 17.570961,49.729382 
	C18.173235,49.972973 18.517187,50.112457 18.920681,50.590675 
	C20.320147,52.286278 21.660072,53.643139 23.000000,55.000000 
z"/>
<path fill="#C9A4FC" opacity="1.000000" stroke="none" 
	d="
M6.935032,11.875874 
	C12.169166,8.447554 17.403297,5.019234 22.818714,1.295457 
	C24.066669,1.000000 25.133339,1.000000 26.600004,1.000000 
	C28.318905,1.951828 29.637810,2.903655 30.655737,4.278813 
	C25.925556,2.307945 22.106432,3.151493 18.054081,6.093523 
	C14.710657,8.520866 10.667893,9.984941 6.935032,11.875874 
z"/>
<path fill="#BA8CFB" opacity="1.000000" stroke="none" 
	d="
M23.416666,55.000000 
	C21.660072,53.643139 20.320147,52.286278 19.305771,50.515430 
	C23.444235,52.288490 27.233433,52.871689 31.273417,50.001740 
	C31.773277,50.133011 31.970284,50.196308 32.167290,50.259602 
	C30.763163,51.608528 29.359034,52.957451 27.977451,54.653191 
	C26.611111,55.000000 25.222221,55.000000 23.416666,55.000000 
z"/>
<path fill="#6E01F7" opacity="1.000000" stroke="none" 
	d="
M30.970562,49.933762 
	C27.233433,52.871689 23.444235,52.288490 19.246231,50.176689 
	C18.517187,50.112457 18.173235,49.972973 17.508999,49.390915 
	C15.428985,48.007851 13.669251,47.067368 11.909517,46.126884 
	C11.909518,46.126884 11.514260,45.998375 11.246727,45.600227 
	C9.995044,44.790245 9.010894,44.378410 8.026743,43.966576 
	C8.026743,43.966579 7.641536,43.854492 7.373178,43.501236 
	C6.399880,42.769608 5.694941,42.391235 4.990002,42.012867 
	C4.990002,42.012867 5.003097,41.821167 5.046764,41.302055 
	C4.937626,31.971193 4.784821,23.159443 4.632016,14.347692 
	C5.263331,13.665996 5.894646,12.984298 6.730497,12.089237 
	C10.667893,9.984941 14.710657,8.520866 18.054081,6.093523 
	C22.106432,3.151493 25.925556,2.307945 30.713158,4.590580 
	C31.071560,4.479016 31.161390,4.642657 31.167311,5.119405 
	C31.993031,5.920856 32.812832,6.245561 33.632629,6.570265 
	C34.991253,7.166616 36.349876,7.762966 37.918606,9.002882 
	C38.937534,9.983186 39.746353,10.319926 40.555176,10.656666 
	C40.890987,10.689859 41.226799,10.723052 41.827003,11.249638 
	C42.864300,12.084635 43.637203,12.426239 44.410110,12.767844 
	C44.410110,12.767844 44.745518,12.755770 44.897659,13.205837 
	C46.014034,14.775382 46.978268,15.894859 47.942501,17.014336 
	C48.006386,23.366041 48.070271,29.717745 47.691055,36.604851 
	C46.904827,38.504505 46.561695,39.868752 46.218567,41.233002 
	C46.218567,41.233002 46.144657,41.143154 45.793663,41.106773 
	C40.618633,44.024853 35.794598,46.979305 30.970562,49.933762 
M18.151157,9.969655 
	C15.899749,11.262843 13.564472,12.432464 11.422223,13.886480 
	C9.550062,15.157179 9.274347,16.459930 12.015045,17.006050 
	C12.015045,17.006050 12.030166,16.957624 12.073959,17.664829 
	C16.895407,20.300398 21.716854,22.935965 27.129402,26.125381 
	C27.320599,32.444366 27.511797,38.763348 27.318956,45.537514 
	C29.711016,48.089603 31.118475,46.975571 32.576775,43.990776 
	C32.932640,43.905907 33.288506,43.821033 34.394226,43.861855 
	C36.251316,42.550377 38.108406,41.238899 40.275177,39.745361 
	C40.275177,39.745361 40.633278,39.716835 41.421864,39.881824 
	C42.591080,38.166988 44.472263,36.567993 44.774235,34.712051 
	C45.322403,31.343006 44.931511,27.821068 44.931446,24.362944 
	C44.931290,15.957641 43.617107,14.287904 34.708752,11.394523 
	C34.095387,11.314535 33.482025,11.234549 32.262440,10.882517 
	C30.913815,10.144694 29.565191,9.406872 27.932444,7.990386 
	C24.302938,5.743990 21.495722,7.386755 18.151157,9.969655 
z"/>
<path fill="#862EF8" opacity="1.000000" stroke="none" 
	d="
M31.273415,50.001736 
	C35.794598,46.979305 40.618633,44.024853 45.824783,41.146088 
	C41.746964,44.151951 37.287033,47.082123 32.497192,50.135948 
	C31.970284,50.196308 31.773277,50.133011 31.273415,50.001736 
z"/>
<path fill="#862EF8" opacity="1.000000" stroke="none" 
	d="
M48.041302,16.659071 
	C46.978268,15.894859 46.014034,14.775382 45.030811,13.307974 
	C46.054581,14.074631 47.097340,15.189219 48.041302,16.659071 
z"/>
<path fill="#862EF8" opacity="1.000000" stroke="none" 
	d="
M46.583549,41.156605 
	C46.561695,39.868752 46.904827,38.504505 47.614212,37.067726 
	C47.636494,38.356869 47.292515,39.718536 46.583549,41.156605 
z"/>
<path fill="#862EF8" opacity="1.000000" stroke="none" 
	d="
M44.314877,12.442955 
	C43.637203,12.426239 42.864300,12.084635 42.040428,11.391246 
	C42.732861,11.398996 43.476250,11.758531 44.314877,12.442955 
z"/>
<path fill="#862EF8" opacity="1.000000" stroke="none" 
	d="
M40.446190,10.331889 
	C39.746353,10.319926 38.937534,9.983186 38.088238,9.274448 
	C38.810913,9.270670 39.574059,9.638891 40.446190,10.331889 
z"/>
<path fill="#862EF8" opacity="1.000000" stroke="none" 
	d="
M33.523056,6.251081 
	C32.812832,6.245561 31.993031,5.920856 31.150606,5.211236 
	C31.889814,5.194846 32.651646,5.563372 33.523056,6.251081 
z"/>
<path fill="#8125F8" opacity="1.000000" stroke="none" 
	d="
M4.233279,14.533836 
	C4.784821,23.159443 4.937626,31.971193 5.108956,41.228828 
	C5.127481,41.674709 4.709518,41.794701 4.452338,41.464573 
	C3.790696,40.756943 3.386234,40.379436 2.981772,40.001934 
	C2.875831,32.439228 2.731197,24.876596 2.717025,17.313721 
	C2.715407,16.449841 3.444344,15.584593 4.233279,14.533836 
z"/>
<path fill="#BA8CFB" opacity="1.000000" stroke="none" 
	d="
M11.973516,46.465370 
	C13.669251,47.067368 15.428985,48.007851 17.250679,49.286804 
	C15.554266,48.684799 13.795890,47.744328 11.973516,46.465370 
z"/>
<path fill="#BA8CFB" opacity="1.000000" stroke="none" 
	d="
M8.093343,44.311325 
	C9.010894,44.378410 9.995044,44.790245 11.047572,45.540874 
	C10.130614,45.471802 9.145278,45.063934 8.093343,44.311325 
z"/>
<path fill="#C9A4FC" opacity="1.000000" stroke="none" 
	d="
M2.756859,40.180931 
	C3.386234,40.379436 3.790696,40.756943 4.239000,41.422630 
	C3.699210,41.260513 3.115578,40.810219 2.756859,40.180931 
z"/>
<path fill="#C9A4FC" opacity="1.000000" stroke="none" 
	d="
M5.026937,42.353386 
	C5.694941,42.391235 6.399880,42.769608 7.175358,43.467999 
	C6.518555,43.423317 5.791214,43.058613 5.026937,42.353386 
z"/>
<path fill="#F5EFFE" opacity="1.000000" stroke="none" 
	d="
M27.702993,45.082336 
	C27.511797,38.763348 27.320599,32.444366 26.641657,25.563885 
	C21.445997,22.320799 16.738081,19.639212 12.030166,16.957624 
	C12.030166,16.957624 12.015045,17.006050 12.051594,16.642250 
	C14.380238,14.496684 16.672333,12.714918 19.352240,10.932159 
	C22.565556,10.177126 25.391062,9.423088 28.216566,8.669050 
	C29.565191,9.406872 30.913815,10.144694 32.631504,11.327791 
	C33.681259,12.150093 34.361950,12.527122 35.349606,13.082441 
	C37.811432,14.947120 41.745125,16.569063 41.808964,18.331203 
	C42.066368,25.436224 41.129238,32.584522 40.633278,39.716835 
	C40.633278,39.716835 40.275177,39.745361 39.760098,39.801132 
	C37.378136,41.149990 35.511253,42.443077 33.644371,43.736168 
	C33.288506,43.821033 32.932640,43.905907 31.959982,44.091663 
	C30.129791,44.489143 28.916393,44.785740 27.702993,45.082336 
z"/>
<path fill="#9244F9" opacity="1.000000" stroke="none" 
	d="
M41.027573,39.799332 
	C41.129238,32.584522 42.066368,25.436224 41.808964,18.331203 
	C41.745125,16.569063 37.811432,14.947120 35.356461,12.827728 
	C35.075920,12.225831 35.095486,12.056940 35.115047,11.888050 
	C43.617107,14.287904 44.931290,15.957641 44.931446,24.362944 
	C44.931511,27.821068 45.322403,31.343006 44.774235,34.712051 
	C44.472263,36.567993 42.591080,38.166988 41.027573,39.799332 
z"/>
<path fill="#8C3AF9" opacity="1.000000" stroke="none" 
	d="
M12.052063,17.311226 
	C16.738081,19.639212 21.445997,22.320799 26.346107,25.286961 
	C21.716854,22.935965 16.895407,20.300398 12.052063,17.311226 
z"/>
<path fill="#8C3AF9" opacity="1.000000" stroke="none" 
	d="
M18.964428,10.933153 
	C16.672333,12.714918 14.380238,14.496684 12.067802,16.621536 
	C9.274347,16.459930 9.550062,15.157179 11.422223,13.886480 
	C13.564472,12.432464 15.899749,11.262843 18.547167,10.193740 
	C18.950260,10.589601 18.957344,10.761376 18.964428,10.933153 
z"/>
<path fill="#AD74FA" opacity="1.000000" stroke="none" 
	d="
M19.352240,10.932159 
	C18.957344,10.761376 18.950260,10.589601 18.908466,10.161751 
	C21.495722,7.386755 24.302938,5.743990 28.074505,8.329718 
	C25.391062,9.423088 22.565556,10.177126 19.352240,10.932159 
z"/>
<path fill="#9244F9" opacity="1.000000" stroke="none" 
	d="
M34.019299,43.799011 
	C35.511253,42.443077 37.378136,41.149990 39.605255,39.892162 
	C38.108406,41.238899 36.251316,42.550377 34.019299,43.799011 
z"/>
<path fill="#9244F9" opacity="1.000000" stroke="none" 
	d="
M27.510975,45.309925 
	C28.916393,44.785740 30.129791,44.489143 31.718826,44.223763 
	C31.118475,46.975571 29.711016,48.089603 27.510975,45.309925 
z"/>
<path fill="#AD74FA" opacity="1.000000" stroke="none" 
	d="
M34.911900,11.641287 
	C35.095486,12.056940 35.075920,12.225831 35.049496,12.649437 
	C34.361950,12.527122 33.681259,12.150093 32.934616,11.463814 
	C33.482025,11.234549 34.095387,11.314535 34.911900,11.641287 
z"/>
</svg>